# xmcd
#
# Track frame offsets:
#	187
#	11352
#	20580
#	33797
#	47757
#	59880
#	74022
#	92070
#	102662
#	120247
#	131810
#	148335
#	162560
#	176487
#	187372
#	199520
#	211135
#	223280
#	232615
#	244120
#
# Disc length: 3421 seconds
#
# Revision: 3
# Processed by: cddbd v1.5.2PL0 Copyright (c) Steve Scherf et al.
# Submitted via: audiograbber 1.83.01
#
DISCID=300d5b14
DTITLE=Waylon Jennings - The Taker/Tulsa - Honky Tonk Heroes
DYEAR=1971
DGENRE=Country
TTITLE0=The Taker
TTITLE1=You'll Look For Me
TTITLE2=Mississippi Woman
TTITLE3=Lovin' Her Was Easier (Than Anything I'll Ever Do Again)
TTITLE4=Six White Hores
TTITLE5=(Don't Let The Sun Set On You) Tulsa
TTITLE6=Casey's Last Ride
TTITLE7=(I'd Be) A Legend In My Time
TTITLE8=Sunday Mornin' Comin' Down
TTITLE9=Grey Eyes You Know
TTITLE10=Honky Tonk Heroes
TTITLE11=Old Five And Dimers (Like Me)
TTITLE12=Willy The Wandering Gypsy And Me
TTITLE13=Low Down Freedom
TTITLE14=Omaha
TTITLE15=You Ask Me To
TTITLE16=Ride Me Down Easy
TTITLE17=Ain't No God In Mexico
TTITLE18=Black Rose
TTITLE19=We Had It All
EXTD=
EXTT0=
EXTT1=
EXTT2=
EXTT3=
EXTT4=
EXTT5=
EXTT6=
EXTT7=
EXTT8=
EXTT9=
EXTT10=
EXTT11=
EXTT12=
EXTT13=
EXTT14=
EXTT15=
EXTT16=
EXTT17=
EXTT18=
EXTT19=
PLAYORDER=
